<mxfile host="app.diagrams.net" agent="Mozilla/5.0 (Windows NT 10.0; Win64; x64) AppleWebKit/537.36 (KHTML, like Gecko) Chrome/129.0.0.0 Safari/537.36" version="24.7.16">
  <diagram name="Page-1" id="8kFs8_2biaC75ImrpJtT">
    <mxGraphModel dx="1932" dy="1718" grid="1" gridSize="10" guides="1" tooltips="1" connect="1" arrows="1" fold="1" page="1" pageScale="1" pageWidth="827" pageHeight="1169" math="0" shadow="0">
      <root>
        <mxCell id="0" />
        <mxCell id="1" parent="0" />
        <mxCell id="1eePZUk9_XShjP-3TJYx-1" value="Requirements:&lt;div&gt;&lt;ol&gt;&lt;li&gt;&lt;span style=&quot;background-color: initial;&quot;&gt;View movies list&lt;/span&gt;&lt;/li&gt;&lt;li&gt;&lt;span style=&quot;background-color: initial;&quot;&gt;Filters:&lt;/span&gt;&lt;/li&gt;&lt;ol&gt;&lt;li&gt;Movie&lt;/li&gt;&lt;li&gt;Theater&lt;/li&gt;&lt;li&gt;Timings&lt;/li&gt;&lt;/ol&gt;&lt;li&gt;Seating arrangement&lt;/li&gt;&lt;li&gt;Seat Selection&lt;/li&gt;&lt;li&gt;Seat types&lt;/li&gt;&lt;li&gt;Payment&lt;/li&gt;&lt;li&gt;CRUD&lt;/li&gt;&lt;ol&gt;&lt;li&gt;Movies&lt;/li&gt;&lt;li&gt;Shows&lt;/li&gt;&lt;li&gt;Seat Arrangement&lt;/li&gt;&lt;/ol&gt;&lt;/ol&gt;&lt;/div&gt;" style="text;html=1;align=left;verticalAlign=middle;resizable=0;points=[];autosize=1;strokeColor=none;fillColor=none;" vertex="1" parent="1">
          <mxGeometry x="-827" y="-1115" width="200" height="240" as="geometry" />
        </mxCell>
        <mxCell id="1eePZUk9_XShjP-3TJYx-2" value="Entities" style="text;html=1;align=center;verticalAlign=middle;resizable=0;points=[];autosize=1;strokeColor=none;fillColor=none;" vertex="1" parent="1">
          <mxGeometry x="-800" y="-842" width="60" height="30" as="geometry" />
        </mxCell>
        <mxCell id="1eePZUk9_XShjP-3TJYx-4" value="Movie" style="swimlane;fontStyle=0;childLayout=stackLayout;horizontal=1;startSize=30;horizontalStack=0;resizeParent=1;resizeParentMax=0;resizeLast=0;collapsible=1;marginBottom=0;whiteSpace=wrap;html=1;" vertex="1" parent="1">
          <mxGeometry x="-790" y="-810" width="140" height="120" as="geometry" />
        </mxCell>
        <mxCell id="1eePZUk9_XShjP-3TJYx-5" value="Name" style="text;strokeColor=none;fillColor=none;align=left;verticalAlign=middle;spacingLeft=4;spacingRight=4;overflow=hidden;points=[[0,0.5],[1,0.5]];portConstraint=eastwest;rotatable=0;whiteSpace=wrap;html=1;" vertex="1" parent="1eePZUk9_XShjP-3TJYx-4">
          <mxGeometry y="30" width="140" height="30" as="geometry" />
        </mxCell>
        <mxCell id="1eePZUk9_XShjP-3TJYx-6" value="length" style="text;strokeColor=none;fillColor=none;align=left;verticalAlign=middle;spacingLeft=4;spacingRight=4;overflow=hidden;points=[[0,0.5],[1,0.5]];portConstraint=eastwest;rotatable=0;whiteSpace=wrap;html=1;" vertex="1" parent="1eePZUk9_XShjP-3TJYx-4">
          <mxGeometry y="60" width="140" height="30" as="geometry" />
        </mxCell>
        <mxCell id="1eePZUk9_XShjP-3TJYx-7" value="cast" style="text;strokeColor=none;fillColor=none;align=left;verticalAlign=middle;spacingLeft=4;spacingRight=4;overflow=hidden;points=[[0,0.5],[1,0.5]];portConstraint=eastwest;rotatable=0;whiteSpace=wrap;html=1;" vertex="1" parent="1eePZUk9_XShjP-3TJYx-4">
          <mxGeometry y="90" width="140" height="30" as="geometry" />
        </mxCell>
        <mxCell id="1eePZUk9_XShjP-3TJYx-8" value="Shows" style="swimlane;fontStyle=0;childLayout=stackLayout;horizontal=1;startSize=30;horizontalStack=0;resizeParent=1;resizeParentMax=0;resizeLast=0;collapsible=1;marginBottom=0;whiteSpace=wrap;html=1;" vertex="1" parent="1">
          <mxGeometry x="-630" y="-810" width="140" height="180" as="geometry" />
        </mxCell>
        <mxCell id="1eePZUk9_XShjP-3TJYx-9" value="Movie" style="text;strokeColor=none;fillColor=none;align=left;verticalAlign=middle;spacingLeft=4;spacingRight=4;overflow=hidden;points=[[0,0.5],[1,0.5]];portConstraint=eastwest;rotatable=0;whiteSpace=wrap;html=1;" vertex="1" parent="1eePZUk9_XShjP-3TJYx-8">
          <mxGeometry y="30" width="140" height="30" as="geometry" />
        </mxCell>
        <mxCell id="1eePZUk9_XShjP-3TJYx-10" value="Timing" style="text;strokeColor=none;fillColor=none;align=left;verticalAlign=middle;spacingLeft=4;spacingRight=4;overflow=hidden;points=[[0,0.5],[1,0.5]];portConstraint=eastwest;rotatable=0;whiteSpace=wrap;html=1;" vertex="1" parent="1eePZUk9_XShjP-3TJYx-8">
          <mxGeometry y="60" width="140" height="30" as="geometry" />
        </mxCell>
        <mxCell id="1eePZUk9_XShjP-3TJYx-11" value="HallNumber" style="text;strokeColor=none;fillColor=none;align=left;verticalAlign=middle;spacingLeft=4;spacingRight=4;overflow=hidden;points=[[0,0.5],[1,0.5]];portConstraint=eastwest;rotatable=0;whiteSpace=wrap;html=1;" vertex="1" parent="1eePZUk9_XShjP-3TJYx-8">
          <mxGeometry y="90" width="140" height="30" as="geometry" />
        </mxCell>
        <mxCell id="1eePZUk9_XShjP-3TJYx-13" value="SeatArrangement" style="text;strokeColor=none;fillColor=none;align=left;verticalAlign=middle;spacingLeft=4;spacingRight=4;overflow=hidden;points=[[0,0.5],[1,0.5]];portConstraint=eastwest;rotatable=0;whiteSpace=wrap;html=1;" vertex="1" parent="1eePZUk9_XShjP-3TJYx-8">
          <mxGeometry y="120" width="140" height="30" as="geometry" />
        </mxCell>
        <mxCell id="1eePZUk9_XShjP-3TJYx-27" value="Theater" style="text;strokeColor=none;fillColor=none;align=left;verticalAlign=middle;spacingLeft=4;spacingRight=4;overflow=hidden;points=[[0,0.5],[1,0.5]];portConstraint=eastwest;rotatable=0;whiteSpace=wrap;html=1;" vertex="1" parent="1eePZUk9_XShjP-3TJYx-8">
          <mxGeometry y="150" width="140" height="30" as="geometry" />
        </mxCell>
        <mxCell id="1eePZUk9_XShjP-3TJYx-15" value="Seat" style="swimlane;fontStyle=0;childLayout=stackLayout;horizontal=1;startSize=30;horizontalStack=0;resizeParent=1;resizeParentMax=0;resizeLast=0;collapsible=1;marginBottom=0;whiteSpace=wrap;html=1;" vertex="1" parent="1">
          <mxGeometry x="-440" y="-810" width="140" height="150" as="geometry" />
        </mxCell>
        <mxCell id="1eePZUk9_XShjP-3TJYx-16" value="Type" style="text;strokeColor=none;fillColor=none;align=left;verticalAlign=middle;spacingLeft=4;spacingRight=4;overflow=hidden;points=[[0,0.5],[1,0.5]];portConstraint=eastwest;rotatable=0;whiteSpace=wrap;html=1;" vertex="1" parent="1eePZUk9_XShjP-3TJYx-15">
          <mxGeometry y="30" width="140" height="30" as="geometry" />
        </mxCell>
        <mxCell id="1eePZUk9_XShjP-3TJYx-17" value="Cost" style="text;strokeColor=none;fillColor=none;align=left;verticalAlign=middle;spacingLeft=4;spacingRight=4;overflow=hidden;points=[[0,0.5],[1,0.5]];portConstraint=eastwest;rotatable=0;whiteSpace=wrap;html=1;" vertex="1" parent="1eePZUk9_XShjP-3TJYx-15">
          <mxGeometry y="60" width="140" height="30" as="geometry" />
        </mxCell>
        <mxCell id="1eePZUk9_XShjP-3TJYx-18" value="Taken" style="text;strokeColor=none;fillColor=none;align=left;verticalAlign=middle;spacingLeft=4;spacingRight=4;overflow=hidden;points=[[0,0.5],[1,0.5]];portConstraint=eastwest;rotatable=0;whiteSpace=wrap;html=1;" vertex="1" parent="1eePZUk9_XShjP-3TJYx-15">
          <mxGeometry y="90" width="140" height="30" as="geometry" />
        </mxCell>
        <mxCell id="1eePZUk9_XShjP-3TJYx-19" value="Position:&amp;nbsp;" style="text;strokeColor=none;fillColor=none;align=left;verticalAlign=middle;spacingLeft=4;spacingRight=4;overflow=hidden;points=[[0,0.5],[1,0.5]];portConstraint=eastwest;rotatable=0;whiteSpace=wrap;html=1;" vertex="1" parent="1eePZUk9_XShjP-3TJYx-15">
          <mxGeometry y="120" width="140" height="30" as="geometry" />
        </mxCell>
        <mxCell id="1eePZUk9_XShjP-3TJYx-21" value="SeatingArrangement" style="swimlane;fontStyle=0;childLayout=stackLayout;horizontal=1;startSize=30;horizontalStack=0;resizeParent=1;resizeParentMax=0;resizeLast=0;collapsible=1;marginBottom=0;whiteSpace=wrap;html=1;" vertex="1" parent="1">
          <mxGeometry x="-260" y="-810" width="140" height="120" as="geometry" />
        </mxCell>
        <mxCell id="1eePZUk9_XShjP-3TJYx-22" value="seats: List&amp;lt;Seat&amp;gt;" style="text;strokeColor=none;fillColor=none;align=left;verticalAlign=middle;spacingLeft=4;spacingRight=4;overflow=hidden;points=[[0,0.5],[1,0.5]];portConstraint=eastwest;rotatable=0;whiteSpace=wrap;html=1;" vertex="1" parent="1eePZUk9_XShjP-3TJYx-21">
          <mxGeometry y="30" width="140" height="30" as="geometry" />
        </mxCell>
        <mxCell id="1eePZUk9_XShjP-3TJYx-23" value="SeatsLeft" style="text;strokeColor=none;fillColor=none;align=left;verticalAlign=middle;spacingLeft=4;spacingRight=4;overflow=hidden;points=[[0,0.5],[1,0.5]];portConstraint=eastwest;rotatable=0;whiteSpace=wrap;html=1;" vertex="1" parent="1eePZUk9_XShjP-3TJYx-21">
          <mxGeometry y="60" width="140" height="30" as="geometry" />
        </mxCell>
        <mxCell id="1eePZUk9_XShjP-3TJYx-25" value="Position:&amp;nbsp;" style="text;strokeColor=none;fillColor=none;align=left;verticalAlign=middle;spacingLeft=4;spacingRight=4;overflow=hidden;points=[[0,0.5],[1,0.5]];portConstraint=eastwest;rotatable=0;whiteSpace=wrap;html=1;" vertex="1" parent="1eePZUk9_XShjP-3TJYx-21">
          <mxGeometry y="90" width="140" height="30" as="geometry" />
        </mxCell>
        <mxCell id="1eePZUk9_XShjP-3TJYx-31" style="edgeStyle=orthogonalEdgeStyle;rounded=0;orthogonalLoop=1;jettySize=auto;html=1;exitX=1;exitY=0.25;exitDx=0;exitDy=0;entryX=0;entryY=0.25;entryDx=0;entryDy=0;" edge="1" parent="1" source="1eePZUk9_XShjP-3TJYx-26" target="1eePZUk9_XShjP-3TJYx-29">
          <mxGeometry relative="1" as="geometry" />
        </mxCell>
        <mxCell id="1eePZUk9_XShjP-3TJYx-32" value="getShows" style="edgeLabel;html=1;align=center;verticalAlign=middle;resizable=0;points=[];" vertex="1" connectable="0" parent="1eePZUk9_XShjP-3TJYx-31">
          <mxGeometry x="-0.2075" relative="1" as="geometry">
            <mxPoint as="offset" />
          </mxGeometry>
        </mxCell>
        <mxCell id="1eePZUk9_XShjP-3TJYx-26" value="MoviewList" style="rounded=1;whiteSpace=wrap;html=1;" vertex="1" parent="1">
          <mxGeometry x="-790" y="-570" width="120" height="60" as="geometry" />
        </mxCell>
        <mxCell id="1eePZUk9_XShjP-3TJYx-28" value="UI" style="text;html=1;align=center;verticalAlign=middle;resizable=0;points=[];autosize=1;strokeColor=none;fillColor=none;" vertex="1" parent="1">
          <mxGeometry x="-747" y="-600" width="40" height="30" as="geometry" />
        </mxCell>
        <mxCell id="1eePZUk9_XShjP-3TJYx-33" style="edgeStyle=orthogonalEdgeStyle;rounded=0;orthogonalLoop=1;jettySize=auto;html=1;exitX=0;exitY=0.5;exitDx=0;exitDy=0;entryX=1;entryY=0.5;entryDx=0;entryDy=0;dashed=1;" edge="1" parent="1" source="1eePZUk9_XShjP-3TJYx-29" target="1eePZUk9_XShjP-3TJYx-26">
          <mxGeometry relative="1" as="geometry" />
        </mxCell>
        <mxCell id="1eePZUk9_XShjP-3TJYx-34" value="shows" style="edgeLabel;html=1;align=center;verticalAlign=middle;resizable=0;points=[];" vertex="1" connectable="0" parent="1eePZUk9_XShjP-3TJYx-33">
          <mxGeometry x="0.1925" y="2" relative="1" as="geometry">
            <mxPoint as="offset" />
          </mxGeometry>
        </mxCell>
        <mxCell id="1eePZUk9_XShjP-3TJYx-37" value="" style="rounded=1;whiteSpace=wrap;html=1;" vertex="1" parent="1">
          <mxGeometry x="-340" y="-600" width="230" height="300" as="geometry" />
        </mxCell>
        <mxCell id="1eePZUk9_XShjP-3TJYx-41" style="edgeStyle=orthogonalEdgeStyle;rounded=0;orthogonalLoop=1;jettySize=auto;html=1;exitX=1;exitY=0.75;exitDx=0;exitDy=0;entryX=0;entryY=0.25;entryDx=0;entryDy=0;" edge="1" parent="1" source="1eePZUk9_XShjP-3TJYx-29" target="1eePZUk9_XShjP-3TJYx-38">
          <mxGeometry relative="1" as="geometry" />
        </mxCell>
        <mxCell id="1eePZUk9_XShjP-3TJYx-29" value="ShowsRepository" style="rounded=1;whiteSpace=wrap;html=1;" vertex="1" parent="1">
          <mxGeometry x="-530" y="-570" width="120" height="60" as="geometry" />
        </mxCell>
        <mxCell id="1eePZUk9_XShjP-3TJYx-30" value="Repository" style="text;html=1;align=center;verticalAlign=middle;resizable=0;points=[];autosize=1;strokeColor=none;fillColor=none;" vertex="1" parent="1">
          <mxGeometry x="-510" y="-602" width="80" height="30" as="geometry" />
        </mxCell>
        <mxCell id="1eePZUk9_XShjP-3TJYx-39" style="edgeStyle=orthogonalEdgeStyle;rounded=0;orthogonalLoop=1;jettySize=auto;html=1;exitX=1;exitY=0.25;exitDx=0;exitDy=0;entryX=0;entryY=0.25;entryDx=0;entryDy=0;" edge="1" parent="1" source="1eePZUk9_XShjP-3TJYx-29" target="1eePZUk9_XShjP-3TJYx-35">
          <mxGeometry relative="1" as="geometry" />
        </mxCell>
        <mxCell id="1eePZUk9_XShjP-3TJYx-40" style="edgeStyle=orthogonalEdgeStyle;rounded=0;orthogonalLoop=1;jettySize=auto;html=1;exitX=0;exitY=0.5;exitDx=0;exitDy=0;entryX=1;entryY=0.5;entryDx=0;entryDy=0;dashed=1;" edge="1" parent="1" source="1eePZUk9_XShjP-3TJYx-35" target="1eePZUk9_XShjP-3TJYx-29">
          <mxGeometry relative="1" as="geometry" />
        </mxCell>
        <mxCell id="1eePZUk9_XShjP-3TJYx-35" value="RemoteSource" style="rounded=1;whiteSpace=wrap;html=1;" vertex="1" parent="1">
          <mxGeometry x="-285" y="-572" width="120" height="60" as="geometry" />
        </mxCell>
        <mxCell id="1eePZUk9_XShjP-3TJYx-36" value="Data" style="text;html=1;align=center;verticalAlign=middle;resizable=0;points=[];autosize=1;strokeColor=none;fillColor=none;" vertex="1" parent="1">
          <mxGeometry x="-285" y="-632" width="50" height="30" as="geometry" />
        </mxCell>
        <mxCell id="1eePZUk9_XShjP-3TJYx-42" style="edgeStyle=orthogonalEdgeStyle;rounded=0;orthogonalLoop=1;jettySize=auto;html=1;exitX=0;exitY=0.5;exitDx=0;exitDy=0;entryX=0.75;entryY=1;entryDx=0;entryDy=0;dashed=1;" edge="1" parent="1" source="1eePZUk9_XShjP-3TJYx-38" target="1eePZUk9_XShjP-3TJYx-29">
          <mxGeometry relative="1" as="geometry" />
        </mxCell>
        <mxCell id="1eePZUk9_XShjP-3TJYx-38" value="Database" style="rounded=1;whiteSpace=wrap;html=1;" vertex="1" parent="1">
          <mxGeometry x="-285" y="-400" width="120" height="60" as="geometry" />
        </mxCell>
        <mxCell id="1eePZUk9_XShjP-3TJYx-43" value="" style="rounded=1;whiteSpace=wrap;html=1;" vertex="1" parent="1">
          <mxGeometry x="-580" y="-240" width="310" height="180" as="geometry" />
        </mxCell>
        <mxCell id="1eePZUk9_XShjP-3TJYx-54" style="edgeStyle=orthogonalEdgeStyle;rounded=0;orthogonalLoop=1;jettySize=auto;html=1;exitX=0;exitY=1;exitDx=0;exitDy=0;entryX=0.5;entryY=0;entryDx=0;entryDy=0;dashed=1;" edge="1" parent="1" source="1eePZUk9_XShjP-3TJYx-37" target="1eePZUk9_XShjP-3TJYx-50">
          <mxGeometry relative="1" as="geometry" />
        </mxCell>
        <mxCell id="1eePZUk9_XShjP-3TJYx-55" style="edgeStyle=orthogonalEdgeStyle;rounded=0;orthogonalLoop=1;jettySize=auto;html=1;exitX=1;exitY=0.25;exitDx=0;exitDy=0;entryX=0;entryY=0.25;entryDx=0;entryDy=0;" edge="1" parent="1" source="1eePZUk9_XShjP-3TJYx-50" target="1eePZUk9_XShjP-3TJYx-45">
          <mxGeometry relative="1" as="geometry" />
        </mxCell>
        <mxCell id="1eePZUk9_XShjP-3TJYx-50" value="" style="rounded=1;whiteSpace=wrap;html=1;" vertex="1" parent="1">
          <mxGeometry x="-550" y="-215" width="120" height="60" as="geometry" />
        </mxCell>
        <mxCell id="1eePZUk9_XShjP-3TJYx-44" value="BookingHelper" style="text;html=1;align=center;verticalAlign=middle;resizable=0;points=[];autosize=1;strokeColor=none;fillColor=none;" vertex="1" parent="1">
          <mxGeometry x="-540" y="-200" width="100" height="30" as="geometry" />
        </mxCell>
        <mxCell id="1eePZUk9_XShjP-3TJYx-56" style="edgeStyle=orthogonalEdgeStyle;rounded=0;orthogonalLoop=1;jettySize=auto;html=1;exitX=0;exitY=0.75;exitDx=0;exitDy=0;entryX=1;entryY=0.75;entryDx=0;entryDy=0;dashed=1;" edge="1" parent="1" source="1eePZUk9_XShjP-3TJYx-45" target="1eePZUk9_XShjP-3TJYx-50">
          <mxGeometry relative="1" as="geometry" />
        </mxCell>
        <mxCell id="1eePZUk9_XShjP-3TJYx-45" value="Payment&lt;br&gt;Remote" style="rounded=1;whiteSpace=wrap;html=1;" vertex="1" parent="1">
          <mxGeometry x="-365" y="-230" width="80" height="70" as="geometry" />
        </mxCell>
        <mxCell id="1eePZUk9_XShjP-3TJYx-46" value="Booking" style="swimlane;fontStyle=0;childLayout=stackLayout;horizontal=1;startSize=30;horizontalStack=0;resizeParent=1;resizeParentMax=0;resizeLast=0;collapsible=1;marginBottom=0;whiteSpace=wrap;html=1;" vertex="1" parent="1">
          <mxGeometry x="-100" y="-812" width="140" height="120" as="geometry" />
        </mxCell>
        <mxCell id="1eePZUk9_XShjP-3TJYx-47" value="seats: List&amp;lt;Seat&amp;gt;" style="text;strokeColor=none;fillColor=none;align=left;verticalAlign=middle;spacingLeft=4;spacingRight=4;overflow=hidden;points=[[0,0.5],[1,0.5]];portConstraint=eastwest;rotatable=0;whiteSpace=wrap;html=1;" vertex="1" parent="1eePZUk9_XShjP-3TJYx-46">
          <mxGeometry y="30" width="140" height="30" as="geometry" />
        </mxCell>
        <mxCell id="1eePZUk9_XShjP-3TJYx-48" value="id" style="text;strokeColor=none;fillColor=none;align=left;verticalAlign=middle;spacingLeft=4;spacingRight=4;overflow=hidden;points=[[0,0.5],[1,0.5]];portConstraint=eastwest;rotatable=0;whiteSpace=wrap;html=1;" vertex="1" parent="1eePZUk9_XShjP-3TJYx-46">
          <mxGeometry y="60" width="140" height="30" as="geometry" />
        </mxCell>
        <mxCell id="1eePZUk9_XShjP-3TJYx-49" value="show" style="text;strokeColor=none;fillColor=none;align=left;verticalAlign=middle;spacingLeft=4;spacingRight=4;overflow=hidden;points=[[0,0.5],[1,0.5]];portConstraint=eastwest;rotatable=0;whiteSpace=wrap;html=1;" vertex="1" parent="1eePZUk9_XShjP-3TJYx-46">
          <mxGeometry y="90" width="140" height="30" as="geometry" />
        </mxCell>
        <mxCell id="1eePZUk9_XShjP-3TJYx-53" style="edgeStyle=orthogonalEdgeStyle;rounded=0;orthogonalLoop=1;jettySize=auto;html=1;exitX=0.25;exitY=0;exitDx=0;exitDy=0;entryX=0.002;entryY=0.888;entryDx=0;entryDy=0;entryPerimeter=0;" edge="1" parent="1" source="1eePZUk9_XShjP-3TJYx-50" target="1eePZUk9_XShjP-3TJYx-37">
          <mxGeometry relative="1" as="geometry" />
        </mxCell>
      </root>
    </mxGraphModel>
  </diagram>
</mxfile>
